<?xml version="1.0" encoding="utf-8"?>
<!-- Generator: Adobe Illustrator 23.0.0, SVG Export Plug-In . SVG Version: 6.00 Build 0)  -->
<svg version="1.1" xmlns="http://www.w3.org/2000/svg" xmlns:xlink="http://www.w3.org/1999/xlink" x="0px" y="0px"
	 viewBox="0 0 222.32 140.37" style="enable-background:new 0 0 222.32 140.37;" xml:space="preserve">
<style type="text/css">
	.st0{fill:url(#SVGID_1_);}
	.st1{fill:#2012A4;}
</style>
<g id="bg">
</g>
<g id="Layer_1">
	<g>
		<linearGradient id="SVGID_1_" gradientUnits="userSpaceOnUse" x1="58.5177" y1="90.655" x2="138.6755" y2="10.4973">
			<stop  offset="0" style="stop-color:#3515D1"/>
			<stop  offset="0.5" style="stop-color:#2012A4"/>
			<stop  offset="1" style="stop-color:#418FE0"/>
		</linearGradient>
		<path class="st0" d="M110.42,0H83H69.38h-0.12v62.83l0.12-0.12l13.68-13.68V11.7h25.56c3.71,0,7.18,0.5,10.27,1.55L83.06,49.02
			v16.65L69.38,78.98l-0.12,0.12v22.28h0.12H83h26.86c33.36,0,43.21-29.4,43.21-52.12C153.07,19.99,136.85,0,110.42,0z
			 M129.92,20.43c5.82,6.31,9.04,16.28,9.04,29.65c0,4.83-0.43,9.28-1.24,13.31l-28.91-22.47L129.92,20.43z M109.61,89.63H83.06
			V65.74L98.9,50.51l33.61,26.62C127.38,85.36,119.45,89.63,109.61,89.63z M92.89,71.38h5.06v5.06h-5.06V71.38z M105.54,76.44h-5.06
			v-5.06h5.06V76.44z M92.89,78.97h5.06v5.06h-5.06V78.97z M105.54,84.03h-5.06v-5.06h5.06V84.03z"/>
		<g>
			<g>
				<path class="st1" d="M4.87,140.37H0v-23.31h4.87v9.48l8.9-9.48h6.3l-9.51,9.55l10.07,13.77h-6.27l-7.21-10.23l-2.27,2.34V140.37
					z"/>
				<path class="st1" d="M30.55,122.57c5.55,0,8.83,3.83,8.83,9.16c0,5.33-3.28,9.15-8.83,9.15c-5.45,0-8.83-3.83-8.83-9.15
					C21.72,126.41,25.1,122.57,30.55,122.57z M30.55,137.06c3.25,0,4.16-2.6,4.16-5.33c0-2.73-0.91-5.33-4.16-5.33
					c-3.09,0-4.16,2.69-4.16,5.33C26.39,134.36,27.47,137.06,30.55,137.06z"/>
				<path class="st1" d="M42.63,123.09h6.75l2.92,12.53h0.07l2.86-12.53h6.56v17.28h-4.22v-13.9H57.5l-3.25,13.9h-4.09l-3.25-13.9
					h-0.07v13.9h-4.22V123.09z"/>
				<path class="st1" d="M66.06,123.09h15.55v17.28h-4.48v-13.64h-6.59v13.64h-4.48V123.09z"/>
				<path class="st1" d="M102.85,140.37h-4.48v-13.64h-5.65l-0.2,6.33c-0.1,3.47-0.33,7.83-5.39,7.83c-1.01,0-1.79-0.13-2.27-0.32
					v-3.77c0.29,0.13,0.75,0.26,1.4,0.26c1.33,0,1.69-1.3,1.75-3.47l0.26-10.49h14.58V140.37z"/>
				<path class="st1" d="M110.77,133.13c0,0.94,0.39,4.12,4.06,4.12c1.27,0,2.56-0.75,2.92-2.01h4.64c0,1.91-2.44,5.65-7.83,5.65
					c-4.61,0-8.31-2.6-8.31-9.35c0-4.71,2.4-8.96,8.18-8.96c6.14,0,8.18,4.19,8.18,10.55H110.77z M117.95,130.14
					c0-3.06-2.01-3.93-3.51-3.93c-1.49,0-3.51,0.87-3.51,3.93H117.95z"/>
				<path class="st1" d="M125.73,123.09h4.48v6.56l6.46-6.56h5.98l-7.14,7.18l7.44,10.1h-5.85l-4.97-6.85l-1.92,1.85v5h-4.48V123.09
					z"/>
				<path class="st1" d="M149.17,126.73h-5.23v-3.64h14.94v3.64h-5.23v13.64h-4.48V126.73z"/>
				<path class="st1" d="M171.02,117.05h10.3c7.86,0,9.48,6.69,9.48,11.1c0,5-1.98,12.21-9.68,12.21h-10.1V117.05z M175.8,136.34
					h4.74c3.96,0,5.29-4,5.29-7.83c0-6.88-3.28-7.44-5.36-7.44h-4.67V136.34z"/>
				<path class="st1" d="M194.27,116.31h4.48v4.22h-4.48V116.31z M194.27,123.09h4.48v17.28h-4.48V123.09z"/>
				<path class="st1" d="M203.16,123.09h6.75l2.92,12.53h0.07l2.86-12.53h6.56v17.28h-4.22v-13.9h-0.07l-3.25,13.9h-4.09l-3.25-13.9
					h-0.07v13.9h-4.22V123.09z"/>
			</g>
		</g>
	</g>
</g>
<g id="red">
</g>
</svg>
