<?xml version="1.0" encoding="utf-8"?>
<!-- Generator: Adobe Illustrator 23.0.0, SVG Export Plug-In . SVG Version: 6.00 Build 0)  -->
<svg version="1.1" xmlns="http://www.w3.org/2000/svg" xmlns:xlink="http://www.w3.org/1999/xlink" x="0px" y="0px"
	 viewBox="0 0 292.91 66.67" style="enable-background:new 0 0 292.91 66.67;" xml:space="preserve">
<style type="text/css">
	.st0{fill:#2012A4;}
	.st1{fill:url(#SVGID_1_);}
</style>
<g id="bg">
</g>
<g id="Layer_1">
	<g>
		<g>
			<g>
				<g>
					<path class="st0" d="M75.46,45.11h-4.87V21.79h4.87v9.48l8.9-9.48h6.3l-9.51,9.55l10.07,13.77h-6.27l-7.21-10.23l-2.27,2.34
						V45.11z"/>
					<path class="st0" d="M101.14,27.31c5.55,0,8.83,3.83,8.83,9.16s-3.28,9.15-8.83,9.15c-5.45,0-8.83-3.83-8.83-9.15
						S95.69,27.31,101.14,27.31z M101.14,41.8c3.25,0,4.16-2.6,4.16-5.33c0-2.73-0.91-5.33-4.16-5.33c-3.09,0-4.16,2.69-4.16,5.33
						C96.99,39.1,98.06,41.8,101.14,41.8z"/>
					<path class="st0" d="M113.22,27.83h6.75l2.92,12.53h0.07l2.86-12.53h6.56v17.28h-4.22v-13.9h-0.07l-3.25,13.9h-4.09l-3.25-13.9
						h-0.07v13.9h-4.22V27.83z"/>
					<path class="st0" d="M136.66,27.83h15.55v17.28h-4.48V31.47h-6.59v13.64h-4.48V27.83z"/>
					<path class="st0" d="M173.44,45.11h-4.48V31.47h-5.65l-0.2,6.33c-0.1,3.47-0.33,7.83-5.39,7.83c-1.01,0-1.79-0.13-2.27-0.32
						v-3.77c0.29,0.13,0.75,0.26,1.4,0.26c1.33,0,1.69-1.3,1.75-3.47l0.26-10.49h14.58V45.11z"/>
					<path class="st0" d="M181.36,37.87c0,0.94,0.39,4.12,4.06,4.12c1.27,0,2.56-0.75,2.92-2.01h4.64c0,1.91-2.44,5.65-7.83,5.65
						c-4.61,0-8.31-2.6-8.31-9.35c0-4.71,2.4-8.96,8.18-8.96c6.14,0,8.18,4.19,8.18,10.55H181.36z M188.54,34.88
						c0-3.06-2.01-3.93-3.51-3.93s-3.51,0.87-3.51,3.93H188.54z"/>
					<path class="st0" d="M196.33,27.83h4.48v6.56l6.46-6.56h5.98l-7.14,7.18l7.44,10.1h-5.85l-4.97-6.85l-1.92,1.85v5h-4.48V27.83z
						"/>
					<path class="st0" d="M219.77,31.47h-5.23v-3.64h14.94v3.64h-5.23v13.64h-4.48V31.47z"/>
					<path class="st0" d="M241.61,21.79h10.3c7.86,0,9.48,6.69,9.48,11.1c0,5-1.98,12.21-9.68,12.21h-10.1V21.79z M246.39,41.08
						h4.74c3.96,0,5.29-4,5.29-7.83c0-6.88-3.28-7.44-5.36-7.44h-4.67V41.08z"/>
					<path class="st0" d="M264.86,21.05h4.48v4.22h-4.48V21.05z M264.86,27.83h4.48v17.28h-4.48V27.83z"/>
					<path class="st0" d="M273.75,27.83h6.75l2.92,12.53h0.07l2.86-12.53h6.56v17.28h-4.22v-13.9h-0.07l-3.25,13.9h-4.09l-3.25-13.9
						h-0.07v13.9h-4.22V27.83z"/>
				</g>
			</g>
		</g>
		<linearGradient id="SVGID_1_" gradientUnits="userSpaceOnUse" x1="-7.0597" y1="59.6127" x2="45.6502" y2="6.9028">
			<stop  offset="0" style="stop-color:#3515D1"/>
			<stop  offset="0.5" style="stop-color:#2012A4"/>
			<stop  offset="1" style="stop-color:#418FE0"/>
		</linearGradient>
		<path class="st1" d="M27.07,0H9.04H0.08H0v41.31l0.08-0.08l9-9V7.69h16.81c2.44,0,4.72,0.33,6.76,1.02L9.08,32.24v10.95l-9,8.75
			L0,52.02v14.65h0.08h8.95H26.7c21.94,0,28.41-19.33,28.41-34.27C55.11,13.15,44.45,0,27.07,0z M39.89,13.43
			c3.83,4.15,5.94,10.71,5.94,19.5c0,3.17-0.28,6.11-0.81,8.75L26.01,26.9L39.89,13.43z M26.54,58.94H9.08V43.23L19.5,33.21
			l22.1,17.5C38.22,56.13,33.01,58.94,26.54,58.94z M15.54,46.94h3.33v3.33h-3.33V46.94z M23.86,50.27h-3.33v-3.33h3.33V50.27z
			 M15.54,51.93h3.33v3.33h-3.33V51.93z M23.86,55.26h-3.33v-3.33h3.33V55.26z"/>
	</g>
</g>
<g id="red">
</g>
</svg>
