<?xml version="1.0" encoding="utf-8"?>
<!-- Generator: Adobe Illustrator 23.0.0, SVG Export Plug-In . SVG Version: 6.00 Build 0)  -->
<svg version="1.1" xmlns="http://www.w3.org/2000/svg" xmlns:xlink="http://www.w3.org/1999/xlink" x="0px" y="0px"
	 viewBox="0 0 83.81 101.39" style="enable-background:new 0 0 83.81 101.39;" xml:space="preserve">
<style type="text/css">
	.st0{fill:url(#SVGID_1_);}
</style>
<g id="bg">
</g>
<g id="Layer_1">
	<g>
		<linearGradient id="SVGID_1_" gradientUnits="userSpaceOnUse" x1="-10.736" y1="90.655" x2="69.4218" y2="10.4973">
			<stop  offset="0" style="stop-color:#3515D1"/>
			<stop  offset="0.5" style="stop-color:#2012A4"/>
			<stop  offset="1" style="stop-color:#418FE0"/>
		</linearGradient>
		<path class="st0" d="M41.16,0H13.74H0.12H0v62.83l0.12-0.12L13.8,49.02V11.7h25.56c3.71,0,7.18,0.5,10.27,1.55L13.8,49.02v16.65
			L0.12,78.98L0,79.11v22.28h0.12h13.62h26.86c33.36,0,43.21-29.4,43.21-52.12C83.81,19.99,67.59,0,41.16,0z M60.66,20.43
			c5.82,6.31,9.04,16.28,9.04,29.65c0,4.83-0.43,9.28-1.24,13.31L39.55,40.92L60.66,20.43z M40.36,89.63H13.8V65.74l15.85-15.23
			l33.61,26.62C58.12,85.36,50.2,89.63,40.36,89.63z M23.64,71.38h5.06v5.06h-5.06V71.38z M36.29,76.44h-5.06v-5.06h5.06V76.44z
			 M23.64,78.97h5.06v5.06h-5.06V78.97z M36.29,84.03h-5.06v-5.06h5.06V84.03z"/>
	</g>
</g>
<g id="red">
</g>
</svg>
