<?xml version="1.0" encoding="utf-8"?>
<!-- Generator: Adobe Illustrator 19.2.0, SVG Export Plug-In . SVG Version: 6.00 Build 0)  -->
<svg version="1.1" id="Layer_1" xmlns="http://www.w3.org/2000/svg" xmlns:xlink="http://www.w3.org/1999/xlink" x="0px" y="0px"
	 width="292.9px" height="66.7px" viewBox="0 0 292.9 66.7" style="enable-background:new 0 0 292.9 66.7;" xml:space="preserve">
<style type="text/css">
	.st0{fill:#FFFFFF;}
</style>
<g id="bg">
</g>
<g id="Layer_1_1_">
	<g>
		<g>
			<g>
				<g>
					<path class="st0" d="M75.5,45.1h-4.9V21.8h4.9v9.5l8.9-9.5h6.3l-9.5,9.5l10.1,13.8H85l-7.2-10.2l-2.3,2.3L75.5,45.1L75.5,45.1z
						"/>
					<path class="st0" d="M101.1,27.3c5.6,0,8.8,3.8,8.8,9.2s-3.3,9.2-8.8,9.2c-5.4,0-8.8-3.8-8.8-9.2S95.7,27.3,101.1,27.3z
						 M101.1,41.8c3.2,0,4.2-2.6,4.2-5.3s-0.9-5.3-4.2-5.3c-3.1,0-4.2,2.7-4.2,5.3C97,39.1,98.1,41.8,101.1,41.8z"/>
					<path class="st0" d="M113.2,27.8h6.8l2.9,12.5h0.1l2.9-12.5h6.6v17.3h-4.2V31.2h-0.1l-3.2,13.9h-4.1l-3.2-13.9h-0.1v13.9h-4.2
						L113.2,27.8L113.2,27.8z"/>
					<path class="st0" d="M136.7,27.8h15.6v17.3h-4.5V31.5h-6.6v13.6h-4.5L136.7,27.8L136.7,27.8z"/>
					<path class="st0" d="M173.4,45.1H169V31.5h-5.6l-0.2,6.3c-0.1,3.5-0.3,7.8-5.4,7.8c-1,0-1.8-0.1-2.3-0.3v-3.8
						c0.3,0.1,0.8,0.3,1.4,0.3c1.3,0,1.7-1.3,1.8-3.5l0.3-10.5h14.6V45.1z"/>
					<path class="st0" d="M181.4,37.9c0,0.9,0.4,4.1,4.1,4.1c1.3,0,2.6-0.8,2.9-2h4.6c0,1.9-2.4,5.7-7.8,5.7c-4.6,0-8.3-2.6-8.3-9.4
						c0-4.7,2.4-9,8.2-9c6.1,0,8.2,4.2,8.2,10.5H181.4z M188.5,34.9c0-3.1-2-3.9-3.5-3.9s-3.5,0.9-3.5,3.9H188.5z"/>
					<path class="st0" d="M196.3,27.8h4.5v6.6l6.5-6.6h6l-7.1,7.2l7.4,10.1h-5.9l-5-6.8l-1.9,1.8v5h-4.5V27.8z"/>
					<path class="st0" d="M219.8,31.5h-5.2v-3.6h14.9v3.6h-5.2v13.6h-4.5L219.8,31.5L219.8,31.5z"/>
					<path class="st0" d="M241.6,21.8h10.3c7.9,0,9.5,6.7,9.5,11.1c0,5-2,12.2-9.7,12.2h-10.1L241.6,21.8L241.6,21.8z M246.4,41.1
						h4.7c4,0,5.3-4,5.3-7.8c0-6.9-3.3-7.4-5.4-7.4h-4.7L246.4,41.1L246.4,41.1z"/>
					<path class="st0" d="M264.9,21h4.5v4.2h-4.5V21z M264.9,27.8h4.5v17.3h-4.5V27.8z"/>
					<path class="st0" d="M273.8,27.8h6.8l2.9,12.5h0.1l2.9-12.5h6.6v17.3h-4.2V31.2h-0.1l-3.2,13.9h-4.1L278,31.2H278v13.9h-4.2
						L273.8,27.8L273.8,27.8z"/>
				</g>
			</g>
		</g>
		<path class="st0" d="M27.1,0H9h-9H0v41.3l0.1-0.1l9-9V7.7h16.8c2.4,0,4.7,0.3,6.8,1L9.1,32.2v11l-9,8.8L0,52v14.6h0.1H9h17.7
			c21.9,0,28.4-19.3,28.4-34.3C55.1,13.1,44.5,0,27.1,0z M39.9,13.4c3.8,4.1,5.9,10.7,5.9,19.5c0,3.2-0.3,6.1-0.8,8.8L26,26.9
			L39.9,13.4z M26.5,58.9H9.1V43.2l10.4-10l22.1,17.5C38.2,56.1,33,58.9,26.5,58.9z M15.5,46.9h3.3v3.3h-3.3
			C15.5,50.3,15.5,46.9,15.5,46.9z M23.9,50.3h-3.3v-3.3h3.3V50.3z M15.5,51.9h3.3v3.3h-3.3C15.5,55.3,15.5,51.9,15.5,51.9z
			 M23.9,55.3h-3.3v-3.3h3.3V55.3z"/>
	</g>
</g>
<g id="red">
</g>
</svg>
