<?xml version="1.0" encoding="utf-8"?>
<!-- Generator: Adobe Illustrator 23.0.0, SVG Export Plug-In . SVG Version: 6.00 Build 0)  -->
<svg version="1.1" xmlns="http://www.w3.org/2000/svg" xmlns:xlink="http://www.w3.org/1999/xlink" x="0px" y="0px"
	 viewBox="0 0 229.47 66.67" style="enable-background:new 0 0 229.47 66.67;" xml:space="preserve">
<style type="text/css">
	.st0{fill:url(#SVGID_1_);}
	.st1{fill:#2012A4;}
</style>
<g id="bg">
</g>
<g id="Layer_1">
	<g>
		<g>
			<linearGradient id="SVGID_1_" gradientUnits="userSpaceOnUse" x1="-7.0597" y1="59.6127" x2="45.6502" y2="6.9028">
				<stop  offset="0" style="stop-color:#3515D1"/>
				<stop  offset="0.5" style="stop-color:#2012A4"/>
				<stop  offset="1" style="stop-color:#418FE0"/>
			</linearGradient>
			<path class="st0" d="M27.07,0H9.04H0.08H0v41.31l0.08-0.08l9-9V7.69h16.81c2.44,0,4.72,0.33,6.76,1.02L9.08,32.24v10.95l-9,8.75
				L0,52.02v14.65h0.08h8.95H26.7c21.94,0,28.41-19.33,28.41-34.27C55.11,13.15,44.45,0,27.07,0z M39.89,13.43
				c3.83,4.15,5.94,10.71,5.94,19.5c0,3.17-0.28,6.11-0.81,8.75L26.01,26.9L39.89,13.43z M26.54,58.94H9.08V43.23L19.5,33.21
				l22.1,17.5C38.22,56.13,33.01,58.94,26.54,58.94z M15.54,46.94h3.33v3.33h-3.33V46.94z M23.86,50.27h-3.33v-3.33h3.33V50.27z
				 M15.54,51.93h3.33v3.33h-3.33V51.93z M23.86,55.26h-3.33v-3.33h3.33V55.26z"/>
		</g>
		<g>
			<g>
				<polygon class="st1" points="90.66,7.53 84.36,7.53 75.46,17.01 75.46,7.53 70.59,7.53 70.59,30.84 75.46,30.84 75.46,22.95 
					77.74,20.62 84.95,30.84 91.21,30.84 81.15,17.07 				"/>
				<path class="st1" d="M101.14,13.05c-5.45,0-8.83,3.83-8.83,9.16s3.38,9.15,8.83,9.15c5.55,0,8.83-3.83,8.83-9.15
					S106.69,13.05,101.14,13.05z M101.14,27.53c-3.09,0-4.16-2.7-4.16-5.33c0-2.63,1.07-5.33,4.16-5.33c3.25,0,4.16,2.6,4.16,5.33
					C105.3,24.93,104.39,27.53,101.14,27.53z"/>
				<polygon class="st1" points="122.96,26.1 122.89,26.1 119.97,13.57 113.22,13.57 113.22,30.84 117.44,30.84 117.44,16.95 
					117.5,16.95 120.75,30.84 124.84,30.84 128.09,16.95 128.15,16.95 128.15,30.84 132.38,30.84 132.38,13.57 125.82,13.57 				"/>
				<polygon class="st1" points="136.66,30.84 141.14,30.84 141.14,17.2 147.73,17.2 147.73,30.84 152.21,30.84 152.21,13.57 
					136.66,13.57 				"/>
				<path class="st1" d="M158.6,24.06c-0.07,2.17-0.42,3.47-1.75,3.47c-0.65,0-1.1-0.13-1.4-0.26v3.77c0.49,0.2,1.27,0.32,2.27,0.32
					c5.07,0,5.29-4.35,5.39-7.83l0.2-6.33h5.65v13.64h4.48V13.57h-14.58L158.6,24.06z"/>
				<path class="st1" d="M185.03,13.05c-5.78,0-8.18,4.25-8.18,8.96c0,6.75,3.7,9.35,8.31,9.35c5.39,0,7.83-3.73,7.83-5.65h-4.64
					c-0.36,1.26-1.66,2.01-2.92,2.01c-3.67,0-4.06-3.18-4.06-4.12h11.85C193.21,17.24,191.17,13.05,185.03,13.05z M181.52,20.62
					c0-3.06,2.01-3.93,3.51-3.93s3.51,0.87,3.51,3.93H181.52z"/>
				<polygon class="st1" points="213.24,13.57 207.27,13.57 200.8,20.13 200.8,13.57 196.33,13.57 196.33,30.84 200.8,30.84 
					200.8,25.84 202.72,23.99 207.69,30.84 213.53,30.84 206.1,20.74 				"/>
				<polygon class="st1" points="214.54,13.57 214.54,17.2 219.77,17.2 219.77,30.84 224.25,30.84 224.25,17.2 229.47,17.2 
					229.47,13.57 				"/>
			</g>
			<g>
				<path class="st1" d="M80.89,35.83h-10.3v23.31h10.1c7.7,0,9.68-7.21,9.68-12.21C90.37,42.52,88.74,35.83,80.89,35.83z
					 M80.11,55.12h-4.74V39.85h4.68c2.08,0,5.36,0.55,5.36,7.44C85.4,51.12,84.07,55.12,80.11,55.12z"/>
				<rect x="93.84" y="41.87" class="st1" width="4.48" height="17.28"/>
				<rect x="93.84" y="35.08" class="st1" width="4.48" height="4.22"/>
				<polygon class="st1" points="115.33,41.87 112.47,54.4 112.41,54.4 109.48,41.87 102.73,41.87 102.73,59.14 106.95,59.14 
					106.95,45.25 107.02,45.25 110.26,59.14 114.36,59.14 117.6,45.25 117.67,45.25 117.67,59.14 121.89,59.14 121.89,41.87 				"/>
			</g>
		</g>
	</g>
</g>
<g id="red">
</g>
</svg>
